<?xml version="1.0" encoding="utf-8"?>
<!-- Generator: Adobe Illustrator 25.0.0, SVG Export Plug-In . SVG Version: 6.00 Build 0)  -->
<svg version="1.1"
	 id="Layer_1" inkscape:version="1.1.2 (b8e25be833, 2022-02-05)" sodipodi:docname="Citroen 2022.svg" xmlns:inkscape="http://www.inkscape.org/namespaces/inkscape" xmlns:sodipodi="http://sodipodi.sourceforge.net/DTD/sodipodi-0.dtd" xmlns:svg="http://www.w3.org/2000/svg"
	 xmlns="http://www.w3.org/2000/svg" xmlns:xlink="http://www.w3.org/1999/xlink" x="0px" y="0px" viewBox="0 0 505.7 627.6"
	 style="enable-background:new 0 0 505.7 627.6;" xml:space="preserve">
<sodipodi:namedview  bordercolor="#666666" borderopacity="1.0" fit-margin-bottom="0" fit-margin-left="0" fit-margin-right="0" fit-margin-top="0" id="namedview880" inkscape:current-layer="Layer_1" inkscape:cx="316.09712" inkscape:cy="394.02166" inkscape:pagecheckerboard="0" inkscape:pageopacity="0.0" inkscape:pageshadow="2" inkscape:window-height="989" inkscape:window-maximized="1" inkscape:window-width="1920" inkscape:window-x="-9" inkscape:window-y="-9" inkscape:zoom="0.79564153" pagecolor="#ffffff" showgrid="false">
	</sodipodi:namedview>
<g id="fond_blanc" transform="translate(-111.95,-84.16)">
	<g id="g876">
		<path id="path874" d="M364.8,84.2c-139.4,0-252.9,140.8-252.9,313.8s113.4,313.8,252.9,313.8S617.7,571,617.7,398
			S504.2,84.2,364.8,84.2z M158.6,506.6l-0.2-0.7c-8.4-25.9-10.9-48.6-10.9-48.8l0-0.3l0.3-0.2l217.2-160.6l217.4,160.8l0,0.3
			c0,0.2-2.5,22.9-10.9,48.8l-0.2,0.7l-0.6-0.5l0,0L364.8,353.6L158.6,506.6L158.6,506.6z M364.8,682.1
			c-72.4,0-140.2-44.8-182.2-120.2l-0.5-1l182.7-135.1L547.5,561l-0.5,0.9l0,0C505.1,637.2,437.3,682.1,364.8,682.1L364.8,682.1z
			 M364.8,222.4l-223,165.4l0-1.1c2.2-73.4,26.5-142,68.1-193.2c41.9-51.4,96.8-79.7,154.9-79.7s113,28.3,154.9,79.7
			c41.7,51.2,65.9,119.8,68.2,193.2l0,1.1l-0.9-0.7L364.8,222.4z"/>
	</g>
</g>
</svg>
