<?xml version="1.0" encoding="utf-8"?>
<!-- Generator: Adobe Illustrator 25.0.0, SVG Export Plug-In . SVG Version: 6.00 Build 0)  -->
<svg version="1.1"
	 id="svg2985" inkscape:version="0.48.2 r9819" sodipodi:docname="2014_Jeep_Warranty.pdf" xmlns:cc="http://creativecommons.org/ns#" xmlns:dc="http://purl.org/dc/elements/1.1/" xmlns:inkscape="http://www.inkscape.org/namespaces/inkscape" xmlns:rdf="http://www.w3.org/1999/02/22-rdf-syntax-ns#" xmlns:sodipodi="http://sodipodi.sourceforge.net/DTD/sodipodi-0.dtd" xmlns:svg="http://www.w3.org/2000/svg"
	 xmlns="http://www.w3.org/2000/svg" xmlns:xlink="http://www.w3.org/1999/xlink" x="0px" y="0px" viewBox="0 0 1000 403.2"
	 style="enable-background:new 0 0 1000 403.2;" xml:space="preserve">
<style type="text/css">
	.st0{fill:#231F20;}
</style>
<sodipodi:namedview  bordercolor="#666666" borderopacity="1" fit-margin-bottom="0.5" fit-margin-left="0.5" fit-margin-right="0.5" fit-margin-top="0.5" gridtolerance="10" guidetolerance="10" id="namedview2987" inkscape:current-layer="g2993" inkscape:cx="407.31126" inkscape:cy="286.94632" inkscape:pageopacity="0" inkscape:pageshadow="2" inkscape:window-height="1020" inkscape:window-maximized="0" inkscape:window-width="1049" inkscape:window-x="858" inkscape:window-y="-3" inkscape:zoom="0.6836626" objecttolerance="10" pagecolor="#ffffff" showgrid="false">
	</sodipodi:namedview>
<g id="g2993" transform="matrix(1.25,0,0,-1.25,-1795.1326,711.62505)" inkscape:groupmode="layer" inkscape:label="2014_Jeep_Warranty">
	<g id="g3045" transform="matrix(5.4202527,0,0,5.4202527,2103.3002,397.09971)">
		<path id="path3047" inkscape:connector-curvature="0" class="st0" d="M0,0c-0.1-6.6,1.3-10.1,6.8-10.1c5.4,0,6.2,6,6.2,10.5
			c0,4.5-1,9-6.8,9C2.7,9.4,0.1,6.6,0,0z M-11-27.7v44.8H0.1c0,0,0-0.6,0-1.8c0-2.4,1-1.4,1.8-0.5c0.1,0.2,2.6,3.2,8.2,3.2
			c5.6,0,14.3-3.9,14.3-17.7c0-10.7-5.2-18.4-14.2-18.4c-4.9,0-7.8,1.9-8.4,2.7c-0.7,0.8-1.6,0.9-1.6,0c0-0.9,0-12.3,0-12.3H-11"/>
	</g>
	<g id="g3049" transform="matrix(5.4202527,0,0,5.4202527,1575.2049,568.90004)">
		<path id="path3051" inkscape:connector-curvature="0" class="st0" d="M0,0h12.1c0,0,0-26.2,0-31.7c0-5.5-2.3-16.9-19.1-16.9
			c-16.8,0-18.6,10.7-18.6,16.6v5.8h11.7c0,0,0-2.2,0-5.7c0-3.5,2.3-6.8,6.8-6.8c4.4,0,7.1,2.5,7.1,6.6C0-27.8,0,0,0,0"/>
	</g>
	<g id="g3053" transform="matrix(5.4202527,0,0,5.4202527,1777.646,423.16029)">
		<path id="path3055" inkscape:connector-curvature="0" class="st0" d="M0,0c0,3.3-1.8,6.4-6,6.4c-4,0-5.5-2.9-5.5-6.4H0z
			 M-7.1,13.6c9.5,0,17.8-3.6,17.8-20.4h-22.5c0-5.3,2.2-7.5,6.1-7.5c3.9,0,5.2,3.1,5.2,3.1h11c0-4.8-6.6-11.3-16.6-11.2
			c-11.4,0-17,8.4-17,17.1C-23.1,3.5-18.2,13.6-7.1,13.6"/>
	</g>
	<g id="g3057" transform="matrix(5.4202527,0,0,5.4202527,1972.3577,423.16029)">
		<path id="path3059" inkscape:connector-curvature="0" class="st0" d="M0,0c0,3.3-1.8,6.4-6,6.4c-4,0-5.5-2.9-5.5-6.4H0z
			 M-7.1,13.6c9.5,0,17.8-3.6,17.8-20.4h-22.5c0-5.3,2.2-7.5,6.1-7.5c3.9,0,5.2,3.1,5.2,3.1h11c0-4.8-6.6-11.3-16.6-11.2
			c-11.4,0-17,8.4-17,17.1C-23.1,3.5-18.2,13.6-7.1,13.6"/>
	</g>
</g>
</svg>
