<svg xmlns="http://www.w3.org/2000/svg" xmlns:xlink="http://www.w3.org/1999/xlink" width="392.57" height="101.66" viewBox="0 0 392.57 101.66"><defs><linearGradient id="a" x1="255.58" y1="187.75" x2="255.58" y2="245.44" gradientUnits="userSpaceOnUse"><stop offset="0" stop-color="#e2ab2a"/><stop offset="0.24" stop-color="#dca52b"/><stop offset="0.54" stop-color="#fff6b0"/><stop offset="0.91" stop-color="#f0b929"/><stop offset="1" stop-color="#ffd972"/></linearGradient><linearGradient id="b" x1="249.34" y1="181.08" x2="249.34" y2="212.46" gradientUnits="userSpaceOnUse"><stop offset="0" stop-color="#fff"/><stop offset="1"/></linearGradient><linearGradient id="c" x1="256.42" y1="250.15" x2="256.42" y2="187.02" xlink:href="#a"/><linearGradient id="d" x1="70.05" y1="288.19" x2="70.05" y2="261.4" gradientUnits="userSpaceOnUse"><stop offset="0" stop-color="#919395"/><stop offset="0.42" stop-color="#f5f7f9"/><stop offset="1" stop-color="#cfd1d2"/></linearGradient><linearGradient id="e" x1="95.25" y1="287.75" x2="95.25" y2="261.85" xlink:href="#d"/><linearGradient id="f" x1="120.74" y1="287.75" x2="120.74" y2="261.85" xlink:href="#d"/><linearGradient id="g" x1="140.55" y1="287.75" x2="140.55" y2="261.85" xlink:href="#d"/><linearGradient id="h" x1="164.88" y1="287.75" x2="164.88" y2="261.85" xlink:href="#d"/><linearGradient id="i" x1="195.72" y1="287.75" x2="195.72" y2="261.85" xlink:href="#d"/><linearGradient id="j" x1="222.82" y1="288.19" x2="222.82" y2="261.85" xlink:href="#d"/><linearGradient id="k" x1="249" y1="287.75" x2="249" y2="261.85" xlink:href="#d"/><linearGradient id="l" x1="277.65" y1="288.19" x2="277.65" y2="261.85" xlink:href="#d"/><linearGradient id="m" x1="304.66" y1="287.75" x2="304.66" y2="261.85" xlink:href="#d"/><linearGradient id="n" x1="333.19" y1="287.75" x2="333.19" y2="261.85" xlink:href="#d"/><linearGradient id="o" x1="368.83" y1="261.4" x2="368.83" y2="288.19" xlink:href="#a"/><linearGradient id="p" x1="392.6" y1="261.85" x2="392.6" y2="287.75" xlink:href="#a"/><linearGradient id="q" x1="422.76" y1="261.85" x2="422.76" y2="287.75" xlink:href="#a"/><linearGradient id="r" x1="283.42" y1="259.55" x2="283.42" y2="218.71" xlink:href="#d"/><linearGradient id="s" x1="376.77" y1="259.55" x2="376.77" y2="218.71" xlink:href="#d"/><linearGradient id="t" x1="144.59" y1="234.31" x2="144.59" y2="251.19" xlink:href="#d"/></defs><path d="M78.22,250.16H60.7c24.48-19.47,56.55-32.19,106-29.45,67.37-44.2,115.46-42.87,232.26-11.22-32.34-4.71-63-5-91.68-.35L321,204c-51.54-16.57-100.85-11.63-143.6,17.93,4.15,4.41,14.75,5.72,28.13,5.69-17.38,8.68-44.22-7.16-73.71-1.31-21.22,4-40.36,10.47-53.64,23.84Zm205.13-33.47c78.43-3.25,154.56-1.93,154.25,22.3a41.87,41.87,0,0,0-16.3-6.48c16.88,11.81,25.06,25.58,24.19,41.36,7.43-16.71,6.59-33.88-2.81-51.53,3.06-1.85,4.6-5,3.68-10.39C371.55,214.69,357.84,200,283.35,216.69Z" transform="translate(-57.9 -186.54)" fill-rule="evenodd" fill="url(#a)"/><path d="M185.36,219.41c37.74-22,79.48-30.2,128-15.25l-37,12.27-64.86,8.41Z" transform="translate(-57.9 -186.54)" fill-rule="evenodd" fill="url(#b)"/><path d="M63.24,249.28H77.87a73,73,0,0,1,23.86-15.36,151.68,151.68,0,0,1,30-8.46h0c14.64-2.91,28.58-.53,41.06,1.6,10.66,1.82,20.23,3.46,28.11,1.39a87.17,87.17,0,0,1-13-1.14c-5-.91-8.88-2.42-11.09-4.78l-.69-.74.83-.57a151.3,151.3,0,0,1,68-26.3c24.52-3.06,50.17-.17,76.39,8.26l0,1.65-6.1,2.28a275.7,275.7,0,0,1,36.56-2.17,328.46,328.46,0,0,1,34.33,2c-51.72-13.59-89.41-20.57-121.77-19.43-34.86,1.23-63.59,11.9-97.14,33.91l-.53.14c-24.64-1.36-44.93,1.12-62.1,6.36a128.86,128.86,0,0,0-41.35,21.34Zm317.57-38.2c17.32,1.3,36.75,2.76,64.81,1.77a10.9,10.9,0,0,1-.42,5.3,6.85,6.85,0,0,1-3,3.44l-.7.43.38.73a61.38,61.38,0,0,1,7.61,25.75,52.59,52.59,0,0,1-3.16,20.86,39.68,39.68,0,0,0-5.55-18.1q-5.31-9-15.57-16.94a43.43,43.43,0,0,1,4.31,1.41,34.93,34.93,0,0,1,7.55,4l1.35.94,0-1.65c.17-12.7-19.1-19.33-48.38-22.33-26.33-2.7-60.87-2.54-96.56-1.25C333,207.5,354.5,209.11,380.81,211.08Z" transform="translate(-57.9 -186.54)" fill-rule="evenodd" fill="url(#c)"/><path d="M62.41,287.38a14.35,14.35,0,0,1-4.51-2.07l2.44-4.63a13.89,13.89,0,0,0,4,2,14.91,14.91,0,0,0,4.55.7,8,8,0,0,0,3.92-.81,2.47,2.47,0,0,0,1.44-2.22,1.91,1.91,0,0,0-1.15-1.76,19.34,19.34,0,0,0-3.66-1.31,38.43,38.43,0,0,1-4.11-1.43,7.41,7.41,0,0,1-2.75-2.05,5.39,5.39,0,0,1-1.17-3.63,7.64,7.64,0,0,1,1.46-4.62A9.23,9.23,0,0,1,67,262.48a16.59,16.59,0,0,1,6.23-1.08,20.81,20.81,0,0,1,5,.58,13.25,13.25,0,0,1,4,1.64L80,268.21a10.93,10.93,0,0,0-3.26-1.5,14.23,14.23,0,0,0-3.77-.5,7.82,7.82,0,0,0-4,.89,2.62,2.62,0,0,0-1.48,2.3,1.85,1.85,0,0,0,.63,1.42,4.8,4.8,0,0,0,1.59.93c.64.23,1.54.51,2.7.83a29.7,29.7,0,0,1,4.07,1.35,7.46,7.46,0,0,1,2.72,2,5.13,5.13,0,0,1,1.13,3.46A7.58,7.58,0,0,1,78.77,284a9.58,9.58,0,0,1-4.19,3.07,16.64,16.64,0,0,1-6.29,1.09A21.19,21.19,0,0,1,62.41,287.38Z" transform="translate(-57.9 -186.54)" fill="url(#d)"/><path d="M93.05,266.66l-1.11,5.62h12l-.92,4.66H91l-1.18,6h14.13l-1,4.81H82.87l5.18-25.9h19.57l-1,4.81Z" transform="translate(-57.9 -186.54)" fill="url(#e)"/><path d="M117.24,266.73H109l1-4.88h22.57l-1,4.88h-8.25l-4.22,21h-6Z" transform="translate(-57.9 -186.54)" fill="url(#f)"/><path d="M135.74,261.85h6l-4.21,21h13l-1,4.89h-19Z" transform="translate(-57.9 -186.54)" fill="url(#g)"/><path d="M164.46,278.76l-1.78,9h-6l1.81-9.25-6.66-16.65h6l4.63,11.54,9.28-11.54h6.18Z" transform="translate(-57.9 -186.54)" fill="url(#h)"/><path d="M190.91,261.85h6l-4.22,21h13l-1,4.89h-19Z" transform="translate(-57.9 -186.54)" fill="url(#i)"/><path d="M212.3,285.77a8.37,8.37,0,0,1-2.78-6.64,14.84,14.84,0,0,1,.3-2.78l2.88-14.5h6l-2.88,14.39a12.17,12.17,0,0,0-.22,2.18,4.51,4.51,0,0,0,1.27,3.5,5.32,5.32,0,0,0,3.72,1.17,5.93,5.93,0,0,0,4.37-1.63,10.25,10.25,0,0,0,2.36-5.22l2.89-14.39h5.88l-2.92,14.76q-2.37,11.58-13.25,11.58A11.27,11.27,0,0,1,212.3,285.77Z" transform="translate(-57.9 -186.54)" fill="url(#j)"/><path d="M252.59,274.69l7.1,13.06h-6.47l-4.59-8.81-7.85,8.81h-7.17L246,274.32l-6.7-12.47h6.41l4.32,8.32,7.55-8.32h6.81Z" transform="translate(-57.9 -186.54)" fill="url(#k)"/><path d="M267.13,285.77a8.37,8.37,0,0,1-2.78-6.64,14.84,14.84,0,0,1,.3-2.78l2.89-14.5h6l-2.89,14.39a12.17,12.17,0,0,0-.22,2.18,4.51,4.51,0,0,0,1.27,3.5,5.35,5.35,0,0,0,3.72,1.17,5.93,5.93,0,0,0,4.37-1.63,10.33,10.33,0,0,0,2.37-5.22l2.88-14.39H291L288,276.61q-2.37,11.58-13.24,11.58Q269.9,288.19,267.13,285.77Z" transform="translate(-57.9 -186.54)" fill="url(#l)"/><path d="M315.63,276.09a10.46,10.46,0,0,1-5.43,3.67l4.51,8h-6.33l-4.07-7.25h-5.1l-1.45,7.25h-6l5.18-25.9h10.55c3.2,0,5.7.7,7.47,2.11a7.11,7.11,0,0,1,2.67,5.92A10,10,0,0,1,315.63,276.09Zm-5.75-1.74a4.8,4.8,0,0,0,1.65-3.92,3.21,3.21,0,0,0-1.26-2.77,6,6,0,0,0-3.59-.93h-4.74l-1.81,9h5.11A7,7,0,0,0,309.88,274.35Z" transform="translate(-57.9 -186.54)" fill="url(#m)"/><path d="M332.76,278.76l-1.77,9h-6l1.82-9.25-6.66-16.65h6l4.63,11.54,9.28-11.54h6.18Z" transform="translate(-57.9 -186.54)" fill="url(#n)"/><path d="M361.71,286.79a10.38,10.38,0,0,1-4.46-4,11.07,11.07,0,0,1-1.55-5.89,15.74,15.74,0,0,1,2-7.93,14.56,14.56,0,0,1,5.68-5.57,17,17,0,0,1,8.4-2,15,15,0,0,1,6.14,1.19,8.79,8.79,0,0,1,4,3.4l-4.33,3.55a7.07,7.07,0,0,0-6.26-3,9.45,9.45,0,0,0-5,1.33,9.16,9.16,0,0,0-3.38,3.63,10.84,10.84,0,0,0-1.21,5.1,6.16,6.16,0,0,0,1.91,4.76,7.6,7.6,0,0,0,5.35,1.76,9,9,0,0,0,6.88-3l3.55,3.63q-3.85,4.47-10.95,4.47A15.53,15.53,0,0,1,361.71,286.79Z" transform="translate(-57.9 -186.54)" fill="url(#o)"/><path d="M399.91,282.2H387.85l-3.37,5.55h-6.4l16.76-25.9h5.92l6.37,25.9h-6Zm-1-4.55-2.18-10-6.11,10Z" transform="translate(-57.9 -186.54)" fill="url(#p)"/><path d="M433.73,276.09a10.49,10.49,0,0,1-5.44,3.67l4.51,8h-6.32l-4.07-7.25H417.3l-1.44,7.25h-6l5.18-25.9h10.54q4.81,0,7.47,2.11a7.11,7.11,0,0,1,2.67,5.92A10,10,0,0,1,433.73,276.09ZM428,274.35a4.8,4.8,0,0,0,1.65-3.92,3.21,3.21,0,0,0-1.26-2.77,6,6,0,0,0-3.59-.93H420l-1.81,9h5.1A7,7,0,0,0,428,274.35Z" transform="translate(-57.9 -186.54)" fill="url(#q)"/><path d="M363.7,220.62C297,218.83,245.26,224.13,203.14,234c42.5-4.17,85.28-5.85,128.48-3.6-3.11,3.93-4.39,8.93-4.64,14.55C334.67,232.52,345.72,223.26,363.7,220.62Z" transform="translate(-57.9 -186.54)" fill="url(#r)"/><path d="M335.93,251.26h10.62C357.81,227.59,391.78,226,417.6,246,392.62,215.79,349.18,222.56,335.93,251.26Z" transform="translate(-57.9 -186.54)" fill="url(#s)"/><path d="M98.53,250.44H112c18.61-14.5,52.12-14.54,78.67.8C164.09,226.56,120.7,230.13,98.53,250.44Z" transform="translate(-57.9 -186.54)" fill-rule="evenodd" fill="url(#t)"/></svg>